<?xml version="1.0" encoding="UTF-8" standalone="no"?>
<!-- Created with Inkscape (http://www.inkscape.org/) -->

<svg
   width="134.05908"
   height="117.79925"
   viewBox="0 0 35.469799 31.167718"
   version="1.1"
   id="svg1"
   xmlns="http://www.w3.org/2000/svg"
   xmlns:svg="http://www.w3.org/2000/svg">
  <defs
     id="defs1" />
  <g
     id="layer1"
     transform="translate(-13.568615,-26.397211)">
    <g
       id="g31">
      <path
         id="path12"
         style="fill:#00ece1;fill-opacity:1;stroke:#00b3e0;stroke-width:0.865;stroke-opacity:1"
         d="M 30.205462,27.450162 23.909065,38.35564 c -0.606438,1.050363 -0.10195,1.921757 1.069935,2.22554 0.902397,0.233925 1.771562,0.588776 2.583659,1.057622 0.959894,0.554278 1.823508,1.258308 2.559826,2.084992 0.26363,0.295984 0.619307,0.273741 0.817555,-0.06958 l 0.0045,-0.0078 a 0.41447986,0.41447986 0.00183405 0 1 0.717883,2.3e-5 l 3.713697,6.432176 2.974563,5.151984 a 3.8037599,3.8037599 29.999733 0 0 3.294135,1.901849 H 47.3425 a 1.267936,1.267936 120.00058 0 0 1.098077,-1.901882 L 40.421305,41.340112 32.40159,27.45015 a 1.267945,1.267945 179.9997 0 0 -2.196128,1.2e-5 z m -9.470685,16.403164 -6.568325,11.377222 a 1.267937,1.267937 59.999401 0 0 1.098079,1.901882 h 5.697667 a 3.8037599,3.8037599 150.00027 0 0 3.294135,-1.901849 l 2.974563,-5.151984 1.965498,-3.404446 c 0.19822,-0.343336 0.138893,-0.856295 -0.148628,-1.129181 -0.784554,-0.744618 -1.654809,-1.394693 -2.59305,-1.936262 -0.793283,-0.458114 -1.628729,-0.834922 -2.493537,-1.125835 -1.148341,-0.386291 -2.619994,0.320073 -3.226402,1.370453 z" />
      <path
         id="path29"
         style="fill:#0050ec;stroke:#003de0;stroke-width:0.865"
         transform="translate(3.1882216)"
         d="m 28.611474,50.004664 1.228712,2.128192 1.228712,2.128192 a 0.57293998,0.57293998 120 0 1 -0.49618,0.85941 h -2.457424 -2.457425 a 0.57293998,0.57293998 60.000001 0 1 -0.49618,-0.85941 l 1.228712,-2.128192 1.228712,-2.128192 a 0.57293991,0.57293991 7.1916944e-6 0 1 0.992361,0 z" />
    </g>
  </g>
</svg>
